<?xml version="1.0" encoding="utf-8"?>
<!-- Generator: Adobe Illustrator 25.4.1, SVG Export Plug-In . SVG Version: 6.00 Build 0)  -->
<svg version="1.1" id="Layer_1" xmlns="http://www.w3.org/2000/svg" xmlns:xlink="http://www.w3.org/1999/xlink" x="0px" y="0px"
	 viewBox="0 0 54.29 38" style="enable-background:new 0 0 54.29 38;" xml:space="preserve">
<style type="text/css">
	.st0{fill:#FF0000;}
	.st1{fill:#FFFFFF;}
</style>
<g>
	<path class="st0" d="M53.15,5.93c-0.62-2.34-2.46-4.18-4.8-4.8C44.12,0,27.14,0,27.14,0S10.17,0,5.93,1.13
		C3.6,1.76,1.76,3.6,1.13,5.93C0,10.17,0,19,0,19s0,8.83,1.13,13.07c0.62,2.34,2.46,4.18,4.8,4.8C10.17,38,27.14,38,27.14,38
		s16.98,0,21.21-1.13c2.34-0.62,4.18-2.46,4.8-4.8C54.29,27.83,54.29,19,54.29,19S54.29,10.17,53.15,5.93z"/>
	<polygon class="st1" points="21.71,27.14 35.82,19 21.71,10.86 	"/>
</g>
</svg>
